<?xml version="1.0" standalone="no"?>
<!DOCTYPE svg PUBLIC "-//W3C//DTD SVG 20010904//EN"
 "http://www.w3.org/TR/2001/REC-SVG-20010904/DTD/svg10.dtd">
<svg version="1.0" xmlns="http://www.w3.org/2000/svg"
 width="1280.000000pt" height="1280.000000pt" viewBox="0 0 1280.000000 1280.000000"
 preserveAspectRatio="xMidYMid meet">
<metadata>
Created by potrace 1.14, written by Peter Selinger 2001-2017
</metadata>
<g transform="translate(0.000000,1280.000000) scale(0.100000,-0.100000)"
fill="#000000" stroke="none">
<path d="M5940 12334 c-222 -19 -553 -66 -757 -109 -265 -56 -659 -171 -863
-252 -298 -118 -622 -268 -795 -369 -44 -25 -111 -64 -150 -86 -68 -39 -114
-69 -300 -192 -100 -66 -340 -244 -425 -315 -30 -25 -66 -56 -80 -67 -189
-158 -488 -452 -635 -624 -49 -58 -92 -107 -95 -110 -3 -3 -23 -27 -45 -55
-21 -27 -42 -52 -45 -55 -6 -6 -44 -55 -127 -165 -62 -83 -174 -243 -207 -298
-11 -18 -43 -68 -71 -112 -61 -94 -84 -135 -219 -384 -31 -57 -56 -105 -56
-106 0 -2 -26 -59 -59 -126 -111 -236 -214 -504 -291 -759 -22 -74 -44 -148
-50 -165 -42 -134 -117 -482 -145 -670 -57 -394 -68 -546 -68 -920 0 -315 9
-477 39 -705 83 -643 212 -1111 466 -1705 66 -154 251 -507 342 -655 79 -127
239 -371 282 -429 96 -127 167 -217 308 -386 83 -100 327 -354 452 -471 296
-276 564 -481 956 -731 36 -24 69 -43 73 -43 4 0 19 -9 33 -19 67 -47 506
-270 672 -341 337 -143 695 -255 1119 -350 192 -43 517 -89 786 -110 172 -14
831 -8 985 9 387 41 565 72 900 156 547 136 1057 345 1558 637 199 116 502
320 634 427 31 25 84 69 119 96 347 278 740 686 1013 1054 437 586 757 1231
959 1931 165 569 238 1148 224 1768 -7 326 -25 523 -77 862 -22 146 -90 439
-154 665 -31 110 -144 439 -183 535 -127 307 -215 489 -342 713 -98 173 -133
230 -220 362 -277 418 -598 792 -991 1151 -36 32 -67 61 -70 64 -5 5 -107 91
-150 127 -197 163 -612 454 -725 508 -16 7 -55 30 -85 50 -79 51 -531 273
-690 339 -597 244 -1182 381 -1865 436 -176 14 -682 10 -885 -6z"/>
</g>
</svg>
